name Visual3d_SIMM_input.mot
datacolumns 42
datarows 17
range 0.570000 0.730000
endheader
time	pelvis_tx	pelvis_ty	pelvis_tz	pelvis_tilt	pelvis_list	pelvis_rotation	hip_flexion_r	hip_adduction_r	hip_rotation_r	knee_angle_r	ankle_angle_r	subtalar_angle_r	mtp_angle_r	hip_flexion_l	hip_adduction_l	hip_rotation_l	knee_angle_l	ankle_angle_l	subtalar_angle_l	mtp_angle_l	lumbar_extension	lumbar_bending	lumbar_rotation	ground_force_vx	ground_force_vy	ground_force_vz	ground_force_px	ground_force_py	ground_force_pz	ground_force_vx	ground_force_vy	ground_force_vz	ground_force_px	ground_force_py	ground_force_pz	ground_torque_x	ground_torque_y	ground_torque_z	ground_torque_x	ground_torque_y	ground_torque_z
0.570000	0.292684	0.651104	-0.454127	5.442430	16.716099	-100.734756	3.299479	-4.267639	-3.687318	-41.012994	7.526718	-0.000000	0.000000	56.734973	-1.957626	-13.321884	-47.863141	-1.663237	-0.000000	0.000000	29.353240	-0.515685	9.198336	0.000000	0.000000	0.000000	0.000000	0.000000	0.000000	-1.797338	164.437622	-35.790318	0.339749	-0.007427	-0.252156	0.000000	0.000000	0.000000	-0.002976	0.227583	0.004387
0.580000	0.294654	0.652241	-0.442515	5.549946	16.643713	-99.860947	3.152280	-5.060122	-4.912593	-41.434321	3.116631	-0.000000	0.000000	56.267122	-0.885427	-12.653376	-48.947844	-0.880168	-0.000000	0.000000	29.327449	-0.899097	8.840364	0.000000	0.000000	0.000000	0.000000	0.000000	0.000000	-2.807781	175.799530	-38.679569	0.340398	-0.007374	-0.251525	0.000000	0.000000	0.000000	-0.003129	0.239294	0.004612
0.590000	0.296494	0.653306	-0.430973	5.630118	16.580008	-99.038330	3.118755	-5.753236	-5.918545	-42.091147	-1.147778	-0.000000	0.000000	55.835366	0.087460	-12.027914	-50.090015	-0.095981	-0.000000	0.000000	29.302601	-1.250984	8.536046	0.000000	0.000000	0.000000	0.000000	0.000000	0.000000	-4.093313	186.581818	-41.070171	0.340917	-0.007278	-0.251069	0.000000	0.000000	0.000000	-0.003315	0.253520	0.004887
0.600000	0.298092	0.654237	-0.419643	5.677202	16.527300	-98.313255	3.289209	-6.297657	-6.590727	-43.088050	-5.037761	-0.000000	0.000000	55.435571	0.902544	-11.482038	-51.266239	0.678284	-0.000000	0.000000	29.277797	-1.551009	8.311639	0.000000	0.000000	0.000000	0.000000	0.000000	0.000000	-5.500829	196.736511	-42.879700	0.341327	-0.007149	-0.250710	0.000000	0.000000	0.000000	-0.003447	0.263655	0.005082
0.610000	0.299413	0.655008	-0.408635	5.694428	16.480503	-97.703720	3.716854	-6.687005	-6.907839	-44.493447	-8.367738	-0.000000	0.000000	55.053220	1.546888	-11.031816	-52.446045	1.431956	-0.000000	0.000000	29.244787	-1.793189	8.165876	0.000000	0.000000	0.000000	0.000000	0.000000	0.000000	-6.900342	206.195755	-44.024399	0.341653	-0.006996	-0.250430	0.000000	0.000000	0.000000	-0.003446	0.263596	0.005081
0.620000	0.300478	0.655615	-0.398017	5.695222	16.432674	-97.209084	4.424833	-6.947426	-6.911739	-46.338271	-10.994434	-0.000000	0.000000	54.670262	2.042506	-10.680365	-53.595770	2.159270	-0.000000	0.000000	29.195398	-1.984823	8.081095	0.000000	0.000000	0.000000	0.000000	0.000000	0.000000	-8.211694	214.903717	-44.466084	0.341906	-0.006830	-0.250234	0.000000	0.000000	0.000000	-0.003269	0.250016	0.004819
0.630000	0.301334	0.656071	-0.387824	5.700980	16.380154	-96.821327	5.417326	-7.122267	-6.672089	-48.619513	-12.818896	-0.000000	0.000000	54.271860	2.430297	-10.425185	-54.682826	2.860324	-0.000000	0.000000	29.127400	-2.141667	8.036238	0.000000	0.000000	0.000000	0.000000	0.000000	0.000000	-9.403374	222.801376	-44.228062	0.342087	-0.006661	-0.250125	0.000000	0.000000	0.000000	-0.002915	0.222919	0.004297
0.640000	0.302038	0.656393	-0.378064	5.730366	16.321976	-96.528145	6.682758	-7.251964	-6.263639	-51.302138	-13.793780	-0.000000	0.000000	53.848006	2.753205	-10.257626	-55.682151	3.539309	-0.000000	0.000000	29.042460	-2.278524	8.010050	0.000000	0.000000	0.000000	0.000000	0.000000	0.000000	-10.467743	229.804993	-43.399021	0.342192	-0.006503	-0.250094	0.000000	0.000000	0.000000	-0.002413	0.184589	0.003558
0.650000	0.302640	0.656607	-0.368724	5.787337	16.259172	-96.312843	8.196779	-7.355829	-5.752831	-54.322434	-13.929672	-0.000000	0.000000	53.394973	3.041844	-10.159107	-56.582312	4.202910	-0.000000	0.000000	28.943292	-2.399448	7.979261	0.000000	0.000000	0.000000	0.000000	0.000000	0.000000	-11.398134	235.791702	-42.121075	0.342215	-0.006370	-0.250123	0.000000	0.000000	0.000000	-0.001809	0.138384	0.002667
0.660000	0.303182	0.656737	-0.359782	5.860116	16.193489	-96.157333	9.926927	-7.429190	-5.190589	-57.595939	-13.294520	-0.000000	0.000000	52.913899	3.309774	-10.103168	-57.385310	4.859481	-0.000000	0.000000	28.831735	-2.496378	7.921262	0.000000	0.000000	0.000000	0.000000	0.000000	0.000000	-12.183039	240.609283	-40.557629	0.342157	-0.006272	-0.250186	0.000000	0.000000	0.000000	-0.001155	0.088331	0.001703
0.670000	0.303683	0.656809	-0.351209	5.930755	16.125788	-96.047607	11.838285	-7.455079	-4.610849	-61.028655	-12.004638	-0.000000	0.000000	52.407177	3.558168	-10.063811	-58.100717	5.517922	-0.000000	0.000000	28.708368	-2.556330	7.820656	0.000000	0.000000	0.000000	0.000000	0.000000	0.000000	-12.822586	244.141754	-38.848789	0.342016	-0.006212	-0.250270	0.000000	0.000000	0.000000	-0.000502	0.038423	0.000741
0.680000	0.304153	0.656845	-0.342969	5.985672	16.057076	-95.977150	13.900268	-7.418125	-4.033328	-64.527939	-10.208774	-0.000000	0.000000	51.877684	3.783674	-10.022654	-58.739231	6.185897	-0.000000	0.000000	28.574911	-2.569752	7.673550	0.000000	0.000000	0.000000	0.000000	0.000000	0.000000	-13.336851	246.400146	-37.096397	0.341799	-0.006181	-0.250373	0.000000	0.000000	0.000000	0.000104	-0.007943	-0.000153
0.690000	0.304586	0.656863	-0.335027	6.019408	15.989246	-95.945854	16.089298	-7.310614	-3.468283	-68.009314	-8.069010	-0.000000	0.000000	51.328755	3.983554	-9.970100	-59.309661	6.868738	-0.000000	0.000000	28.435172	-2.533913	7.486868	0.000000	0.000000	0.000000	0.000000	0.000000	0.000000	-13.765025	247.591888	-35.357212	0.341520	-0.006163	-0.250503	0.000000	0.000000	0.000000	0.000628	-0.048019	-0.000926
0.700000	0.304969	0.656869	-0.327347	6.031961	15.923726	-95.957321	18.386791	-7.130390	-2.920183	-71.399505	-5.743217	-0.000000	0.000000	50.763059	4.155406	-9.903610	-59.819589	7.569791	-0.000000	0.000000	28.292928	-2.451242	7.274821	0.000000	0.000000	0.000000	0.000000	0.000000	0.000000	-14.145098	248.115616	-33.641388	0.341190	-0.006139	-0.250674	0.000000	0.000000	0.000000	0.001044	-0.079817	-0.001538
0.710000	0.305281	0.656865	-0.319899	6.024798	15.862021	-96.016670	20.778568	-6.876669	-2.390136	-74.637425	-3.371621	-0.000000	0.000000	50.183732	4.294682	-9.825865	-60.277150	8.291111	-0.000000	0.000000	28.151484	-2.326140	7.053810	0.000000	0.000000	0.000000	0.000000	0.000000	0.000000	-14.496197	248.453705	-31.918085	0.340808	-0.006092	-0.250901	0.000000	0.000000	0.000000	0.001339	-0.102431	-0.001974
0.720000	0.305503	0.656844	-0.312655	5.996474	15.807261	-96.124947	23.253406	-6.547707	-1.882462	-77.672850	-1.066960	-0.000000	0.000000	49.596462	4.395133	-9.739204	-60.692159	9.033694	-0.000000	0.000000	28.014533	-2.162170	6.832687	0.000000	0.000000	0.000000	0.000000	0.000000	0.000000	-14.808409	248.975281	-30.151932	0.340376	-0.006015	-0.251189	0.000000	0.000000	0.000000	0.001532	-0.117185	-0.002259
0.730000	0.305626	0.656791	-0.305593	5.941754	15.762904	-96.273659	25.798376	-6.143460	-1.411568	-80.464123	1.092928	-0.000000	0.000000	49.007693	4.453290	-9.641068	-61.075005	9.796963	-0.000000	0.000000	27.885186	-1.962424	6.605860	0.000000	0.000000	0.000000	0.000000	0.000000	0.000000	-15.055384	249.809357	-28.326813	0.339899	-0.005910	-0.251527	0.000000	0.000000	0.000000	0.001664	-0.127291	-0.002454
